<svg xmlns="http://www.w3.org/2000/svg" viewBox="0 0 100 100"><rect width="100" height="100" fill="#111" rx="0"/><path fill="#f4f4f4" d="M16 53.6q.5 0 .8-.3.4-.4.4-.9v-7q0-.6-.4-1-.3-.3-.8-.3h-5.9l-1-.2q-.7-.2-1-.6l-.8-.6-.6-1q-.3-.5-.3-1v-4.2q0-.5.4-.9.3-.3.8-.3h.8q.5 0 .8.4.4.3.4.8v3.3q0 .5.3.8.4.4.9.4H16q.5 0 .8-.4.4-.3.4-.8v-4.3q0-.4.4-.8.3-.3.8-.3h.7q.5 0 .9.3.3.4.3.8v4.3q0 .5.4.8.4.4.9.4h6.3q.5 0 .9.3.3.4.3.9v.7q0 .5-.3.9-.4.3-.9.3h-6.3q-.6 0-1 .4-.3.3-.3.8v7.1q0 .5.4.9.4.3.9.3h6.3q.5 0 .9.4.3.3.3.8v.8q0 .4-.3.8-.4.4-.9.4h-6.3q-.6 0-1 .3-.3.4-.3.9v6.4q0 .5-.3.8-.4.4-.9.4h-.7q-.5 0-.8-.3-.4-.4-.4-.9V58q0-.5-.4-.9-.3-.3-.8-.3H7.6q-.5 0-.8-.4-.4-.4-.4-.8v-.8q0-.5.4-.8.3-.4.8-.4H16Zm27.6 5.5q-.4 1.1-1.5 1.1h-1.3q-1.3 0-1.6-1l-2.1-6.9-.4-.6q-.2-.2-.5-.2t-.5.3q-.2.3-.2.8V61q0 1.3-1.3 1.3h-.4q-1.3 0-1.3-1.3V39.3q0-1.3 1.3-1.3h.5q1.2 0 1.6 1L40.5 54q.1.5.4.7.2.2.5.2l.5-.2.3-.8 4.4-14.7Q47 38 48 38h.6q1.3 0 1.3 1.3V61q0 1.3-1.3 1.3h-.4Q47 62.3 47 61v-8q0-.5-.2-.8-.2-.3-.5-.3-.6 0-.8.8L43.6 59ZM64 47.3q.7.8.7 1.8v9.8q0 1-.7 1.7l-1.1 1.1q-.7.7-1.7.7H57q-1 0-1.6-.7L54 60.6q-.6-.7-.6-1.7V49q0-1 .6-1.6l1.1-1.1q.7-.7 1.7-.7h4.2q1 0 1.7.7l1 1ZM61.5 50q0-1.3-1.4-1.3H58q-1.4 0-1.4 1.3v8q0 1.3 1.4 1.3h2.2q1.4 0 1.4-1.4V50Zm17-2.6q.6.7.6 1.6v10q0 .9-.7 1.6l-1 1.1q-.8.7-1.8.7h-4.2q-1 0-1.6-.7l-1.1-1.1q-.7-.7-.7-1.7V49q0-1 .7-1.6l1-1.1q.8-.7 1.7-.7h4.3q1 0 1.6.7l1.1 1ZM76 50q0-1.3-1.4-1.3h-2.2q-1.3 0-1.3 1.3v8q0 1.3 1.3 1.3h2.2q1.4 0 1.4-1.4V50Zm15.8.4q-.6 0-1-.2-.3-.2-.3-.7 0-.4-.4-.6-.3-.3-1-.3H87q-1.3 0-1.3 1.4v1.4q0 1.4 1.3 1.4h3.2q1 0 1.7.6l1 1.2q.8.6.8 1.6V59q0 1-.7 1.7l-1.1 1.1q-.7.7-1.7.7H86q-1 0-1.7-.7l-1.1-1.1q-.7-.7-.7-1.7 0-1.4 1.3-1.4h.4q.7 0 1 .3.4.2.4.6 0 .4.3.6.4.3 1 .3h2.2q1.4 0 1.4-1.4v-1q0-1.4-1.4-1.4H86l-.9-.1-.7-.5-1-.9q-.5-.3-.6-.7-.2-.4-.2-1V49q0-.5.2-.9.1-.4.5-.8l1-1q.8-.7 1.8-.7H90q1 0 1.7.7l1 1q.8.7.8 1.7 0 1.4-1.4 1.4h-.4Z"/></svg>